# xmcd
#
# Track frame offsets:
#	150
#	17901
#	34427
#	46953
#	60380
#	79317
#	94899
#	107927
#	121636
#	136017
#	149416
#	163006
#	178469
#	195402
#	212371
#	228736
#	244386
#
# Disc length: 3491 seconds
#
# Revision: 0
# Processed by: cddbd v1.5.2PL0 Copyright (c) Steve Scherf et al.
# Submitted via: audiograbber 1.83.01
#
DISCID=f30da111
DTITLE=Various Artist - 8532-19
DYEAR=1900
DGENRE=Country
TTITLE0=Joe Diffie - Prop me up Beside the Jukebox
TTITLE1=Little Texas - God Blessed Texas
TTITLE2=Trisha Yearwood - Thats What I Like About You
TTITLE3=Clay Walker - Live Until I Die
TTITLE4=Wynonna - No One Else on Earth
TTITLE5=Confererate Railroad - Trashy Woman
TTITLE6=Faith Hill - Wild One
TTITLE7=Mark Chesnutt - It Sure is Monday
TTITLE8=Sammy Kershaw - She Dont Know Shes Beautiful
TTITLE9=Lorrie Morgan - What Part Of No
TTITLE10=Sawyer Brown - Thank God For You
TTITLE11=Pam Tillis - Cleopatra Queen od Denial
TTITLE12=Toby Keith - Should Have been A Cowboy
TTITLE13=Patty Loveless - Blame It On Your Heart
TTITLE14=Brooks and Dunn - Rock My Worls Little Country Girk
TTITLE15=Reba McEntire - Take It Back
TTITLE16=Tony Joe White - Polk Salad Annie
EXTD=
EXTT0=
EXTT1=
EXTT2=
EXTT3=
EXTT4=
EXTT5=
EXTT6=
EXTT7=
EXTT8=
EXTT9=
EXTT10=
EXTT11=
EXTT12=
EXTT13=
EXTT14=
EXTT15=
EXTT16=
PLAYORDER=
